<svg xmlns="http://www.w3.org/2000/svg" version="1.1" xmlns:xlink="http://www.w3.org/1999/xlink" xmlns:svgjs="http://svgjs.dev/svgjs" width="1500" height="465" viewBox="0 0 1500 465"><g transform="matrix(1,0,0,1,-0.9090909090909918,-0.31693995277433373)"><svg viewBox="0 0 396 123" data-background-color="#ffffff" preserveAspectRatio="xMidYMid meet" height="465" width="1500" xmlns="http://www.w3.org/2000/svg" xmlns:xlink="http://www.w3.org/1999/xlink"><g id="tight-bounds" transform="matrix(1,0,0,1,0.2400000000000091,0.08383572944353546)"><svg viewBox="0 0 395.52 122.83232854111291" height="122.83232854111291" width="395.52"><g><svg viewBox="0 0 397.4975999999999 123.44649018381847" height="122.83232854111291" width="395.52"><g><rect width="397.4975999999999" height="3.78100295060461" x="0" y="67.8407642341297" fill="#8789fe" opacity="1" stroke-width="0" stroke="transparent" fill-opacity="1" class="rect-qz-0" data-fill-palette-color="secondary" rx="1%" id="qz-0" data-palette-color="#8789fe"></rect></g><g transform="matrix(1,0,0,1,0.9887999999999693,81.51968066799245)"><svg viewBox="0 0 395.52 41.926809515826015" height="41.926809515826015" width="395.52"><g id="textblocktransform"><svg viewBox="0 0 395.52 41.926809515826015" height="41.926809515826015" width="395.52" id="textblock"><g><svg viewBox="0 0 395.52 41.926809515826015" height="41.926809515826015" width="395.52"><g transform="matrix(1,0,0,1,0,0)"><svg width="395.52" viewBox="-1.0409090909090906 -37.8 476.81793609667204 50.55" height="41.926809515826015" data-palette-color="#8789fe"><path d="M18.15-12.7L23-28.2 21.45-32.5 17.6-33.5Q17.45-34.45 17.85-35.25L17.85-35.25Q18.75-35.2 20-35.15 21.25-35.1 22.53-35.05 23.8-35 24.7-35L24.7-35Q26.15-35 28.15-35.1 30.15-35.2 31.55-35.25L31.55-35.25Q31.7-34.3 31.45-33.5L31.45-33.5Q30.45-33.3 29.43-33.18 28.4-33.05 27.4-32.5L27.4-32.5 33.6-13.1Q34.15-11.35 34.8-9.2 35.45-7.05 35.75-5.3L35.75-5.3 35.85-5.3Q36.2-7.2 36.7-9.2 37.2-11.2 37.7-13.1L37.7-13.1 42.8-32.5 38.45-33.5Q38.3-34.45 38.7-35.25L38.7-35.25Q40.05-35.2 41.5-35.1 42.95-35 44.35-35L44.35-35Q45.8-35 47.05-35.1 48.3-35.2 49.7-35.25L49.7-35.25Q49.85-34.3 49.6-33.5L49.6-33.5Q48.6-33.3 47.55-33.1 46.5-32.9 45.5-32.5L45.5-32.5 36.25 1Q35.9 1.2 35.02 1.35 34.15 1.5 33.7 1.5L33.7 1.5 24.4-24.35 16.25 1Q15.9 1.2 15.13 1.35 14.35 1.5 13.9 1.5L13.9 1.5 2.85-32.5-1-33.5Q-1.15-34.45-0.75-35.25L-0.75-35.25Q0.15-35.2 1.4-35.15 2.65-35.1 3.93-35.05 5.2-35 6.1-35L6.1-35Q7.55-35 9.55-35.1 11.55-35.2 12.95-35.25L12.95-35.25Q13.1-34.3 12.85-33.5L12.85-33.5Q11.75-33.4 10.7-33.15 9.65-32.9 8.65-32.5L8.65-32.5 13.9-12.85Q14.45-10.9 15-8.78 15.55-6.65 15.9-4.75L15.9-4.75 16-4.75Q16.3-6.65 16.88-8.65 17.45-10.65 18.15-12.7L18.15-12.7ZM58.2 0.85L58.2 0.85Q55.2 0.85 53.15-0.73 51.1-2.3 51.1-5.5L51.1-5.5Q51.1-8 52.32-9.6 53.55-11.2 55.62-12.08 57.7-12.95 60.25-13.25 62.8-13.55 65.45-13.5L65.45-13.5 65.5-17.9Q65.55-20.7 64.45-22.23 63.35-23.75 61.1-23.75L61.1-23.75Q59.85-23.75 58.7-23.58 57.55-23.4 56.4-23L56.4-23 55.75-17.7Q55.35-17.5 54.65-17.48 53.95-17.45 53.55-17.5L53.55-17.5Q53.1-19.15 52.8-20.8 52.5-22.45 52.55-24L52.55-24Q54.9-25.1 57.27-25.55 59.65-26 62.45-26L62.45-26Q65.25-26 66.97-25.1 68.7-24.2 69.52-22 70.35-19.8 70.35-15.85L70.35-15.85 70.35-2.45Q71.2-2.05 72.1-1.88 73-1.7 73.85-1.45L73.85-1.45Q74-0.5 73.6 0.3L73.6 0.3Q72.8 0.45 71.67 0.55 70.55 0.65 69.4 0.65L69.4 0.65Q67.75 0.65 66.55 0.35L66.55 0.35 65.85-2.25 65.65-2.25Q64.4-0.95 62.55-0.05 60.7 0.85 58.2 0.85ZM60.1-1.9L60.1-1.9Q61.5-1.9 63.1-2.78 64.7-3.65 65.45-4.75L65.45-4.75 65.45-11.5Q60.3-11.5 58.2-10.28 56.1-9.05 56.1-6L56.1-6Q56.1-3.95 57.2-2.93 58.3-1.9 60.1-1.9ZM83.85-37.25L83.85-2.5 87.7-1.5Q87.85-0.55 87.45 0.25L87.45 0.25Q86.1 0.15 84.42 0.08 82.75 0 81.35 0L81.35 0Q79.95 0 78.3 0.08 76.65 0.15 75.25 0.25L75.25 0.25Q75.1-0.7 75.35-1.5L75.35-1.5Q76.3-1.75 77.22-1.95 78.15-2.15 78.85-2.5L78.85-2.5 78.85-34.3 74.7-34.7Q74.55-35.7 74.95-36.45L74.95-36.45Q76.75-36.7 78.57-37.05 80.4-37.4 81.95-37.8L81.95-37.8Q82.45-37.75 82.9-37.63 83.35-37.5 83.85-37.25L83.85-37.25ZM97.79-37.25L97.79-2.5 101.64-1.5Q101.79-0.55 101.39 0.25L101.39 0.25Q100.04 0.15 98.37 0.08 96.69 0 95.29 0L95.29 0Q93.89 0 92.24 0.08 90.59 0.15 89.19 0.25L89.19 0.25Q89.04-0.7 89.29-1.5L89.29-1.5Q90.24-1.75 91.17-1.95 92.09-2.15 92.79-2.5L92.79-2.5 92.79-34.3 88.64-34.7Q88.49-35.7 88.89-36.45L88.89-36.45Q90.69-36.7 92.52-37.05 94.34-37.4 95.89-37.8L95.89-37.8Q96.39-37.75 96.84-37.63 97.29-37.5 97.79-37.25L97.79-37.25ZM107.24-7.5L107.74-2.2Q108.79-1.7 109.87-1.5 110.94-1.3 112.29-1.3L112.29-1.3Q114.34-1.3 115.94-2.2 117.54-3.1 117.54-5.1L117.54-5.1Q117.54-6.15 116.97-7.05 116.39-7.95 114.97-8.9 113.54-9.85 110.89-11.05L110.89-11.05Q107.99-12.4 106.39-14.18 104.79-15.95 104.79-19.1L104.79-19.1Q104.79-21.65 106.07-23.13 107.34-24.6 109.37-25.25 111.39-25.9 113.64-25.9L113.64-25.9Q115.59-25.9 117.52-25.53 119.44-25.15 120.94-24.5L120.94-24.5Q120.94-24.25 120.97-23.95 120.99-23.65 120.99-23.4L120.99-23.4Q120.99-20.35 120.04-17.65L120.04-17.65Q119.84-17.6 119.67-17.57 119.49-17.55 119.29-17.55L119.29-17.55Q118.54-17.55 117.79-17.85L117.79-17.85 116.99-23.25Q116.34-23.45 115.49-23.58 114.64-23.7 113.79-23.7L113.79-23.7Q112.64-23.7 111.52-23.38 110.39-23.05 109.67-22.28 108.94-21.5 108.94-20.1L108.94-20.1Q108.94-19.15 109.37-18.3 109.79-17.45 111.07-16.53 112.34-15.6 114.89-14.35L114.89-14.35Q118.89-12.45 120.52-10.68 122.14-8.9 122.14-6.25L122.14-6.25Q122.14-3.7 120.79-2.1 119.44-0.5 117.27 0.25 115.09 1 112.64 1L112.64 1Q110.29 1 108.27 0.63 106.24 0.25 104.19-1L104.19-1 104.19-1.85Q104.19-3.2 104.37-4.63 104.54-6.05 105.09-7.7L105.09-7.7Q105.39-7.75 105.59-7.75L105.59-7.75Q106.49-7.75 107.24-7.5L107.24-7.5ZM134.04 0.8L134.04 0.8Q132.44 0.8 131.14 0.2 129.84-0.4 129.11-1.88 128.39-3.35 128.39-5.95L128.39-5.95 128.39-21.9 124.89-21.9Q124.59-22.45 124.56-23.03 124.54-23.6 124.64-24.15L124.64-24.15Q126.74-24.15 127.79-24.7 128.84-25.25 129.41-26.6 129.99-27.95 130.64-30.25L130.64-30.25 133.29-30.25 133.29-24.65 138.54-24.65Q139.24-23.2 138.54-21.9L138.54-21.9 133.29-21.9 133.29-7.2Q133.29-4.9 133.51-3.73 133.74-2.55 134.29-2.13 134.84-1.7 135.79-1.7L135.79-1.7Q136.59-1.7 137.34-2 138.09-2.3 138.79-2.7L138.79-2.7Q139.49-2.25 139.54-1.2L139.54-1.2Q138.99-0.55 137.54 0.13 136.09 0.8 134.04 0.8ZM150.04-16.85L150.04-2.5 154.89-1.5Q155.04-0.55 154.64 0.25L154.64 0.25Q153.74 0.2 152.41 0.15 151.09 0.1 149.79 0.05 148.49 0 147.54 0L147.54 0Q146.14 0 144.49 0.08 142.84 0.15 141.44 0.25L141.44 0.25Q141.29-0.7 141.54-1.5L141.54-1.5Q142.49-1.75 143.41-1.95 144.34-2.15 145.04-2.5L145.04-2.5 145.04-22 140.89-22.4Q140.74-23.4 141.14-24.15L141.14-24.15Q142.94-24.4 144.76-24.75 146.59-25.1 148.14-25.5L148.14-25.5Q148.64-25.45 148.96-25.33 149.29-25.2 149.79-24.95L149.79-24.95 149.79-20.4 149.84-20.35Q151.39-22.65 153.31-24.25 155.24-25.85 157.44-25.85L157.44-25.85Q158.29-25.85 159.11-25.73 159.94-25.6 160.74-25.1L160.74-25.1Q160.84-23.05 160.56-21.2 160.29-19.35 159.74-17.6L159.74-17.6Q159.39-17.55 158.64-17.57 157.89-17.6 157.49-17.8L157.49-17.8 156.79-22.8Q155.04-22.8 153.26-21.53 151.49-20.25 150.04-16.85L150.04-16.85ZM168.73-13.5L168.73-12.5Q168.73-7.45 170.76-4.67 172.78-1.9 176.28-1.9L176.28-1.9Q177.83-1.9 178.88-2.08 179.93-2.25 180.96-2.75 181.98-3.25 183.28-4.15L183.28-4.15Q184.08-3.8 184.18-2.95L184.18-2.95Q182.63-1.15 180.48-0.15 178.33 0.85 176.13 0.85L176.13 0.85Q172.33 0.85 169.48-0.75 166.63-2.35 165.03-5.35 163.43-8.35 163.43-12.5L163.43-12.5Q163.43-16.75 165.11-19.73 166.78-22.7 169.61-24.28 172.43-25.85 175.88-25.85L175.88-25.85Q180.33-25.85 182.46-22.88 184.58-19.9 184.58-15.2L184.58-15.2Q184.58-14.85 184.58-14.55 184.58-14.25 184.53-13.9L184.53-13.9 183.83-13.35 168.73-13.5ZM175.83-23.7L175.83-23.7Q174.38-23.7 172.96-22.8 171.53-21.9 170.43-20.1 169.33-18.3 168.93-15.55L168.93-15.55 179.83-16.15Q179.83-20 179.01-21.85 178.18-23.7 175.83-23.7ZM193.48-13.5L193.48-12.5Q193.48-7.45 195.51-4.67 197.53-1.9 201.03-1.9L201.03-1.9Q202.58-1.9 203.63-2.08 204.68-2.25 205.71-2.75 206.73-3.25 208.03-4.15L208.03-4.15Q208.83-3.8 208.93-2.95L208.93-2.95Q207.38-1.15 205.23-0.15 203.08 0.85 200.88 0.85L200.88 0.85Q197.08 0.85 194.23-0.75 191.38-2.35 189.78-5.35 188.18-8.35 188.18-12.5L188.18-12.5Q188.18-16.75 189.86-19.73 191.53-22.7 194.36-24.28 197.18-25.85 200.63-25.85L200.63-25.85Q205.08-25.85 207.21-22.88 209.33-19.9 209.33-15.2L209.33-15.2Q209.33-14.85 209.33-14.55 209.33-14.25 209.28-13.9L209.28-13.9 208.58-13.35 193.48-13.5ZM200.58-23.7L200.58-23.7Q199.13-23.7 197.71-22.8 196.28-21.9 195.18-20.1 194.08-18.3 193.68-15.55L193.68-15.55 204.58-16.15Q204.58-20 203.76-21.85 202.93-23.7 200.58-23.7ZM221.23 0.8L221.23 0.8Q219.63 0.8 218.33 0.2 217.03-0.4 216.3-1.88 215.58-3.35 215.58-5.95L215.58-5.95 215.58-21.9 212.08-21.9Q211.78-22.45 211.75-23.03 211.73-23.6 211.83-24.15L211.83-24.15Q213.93-24.15 214.98-24.7 216.03-25.25 216.6-26.6 217.18-27.95 217.83-30.25L217.83-30.25 220.48-30.25 220.48-24.65 225.73-24.65Q226.43-23.2 225.73-21.9L225.73-21.9 220.48-21.9 220.48-7.2Q220.48-4.9 220.7-3.73 220.93-2.55 221.48-2.13 222.03-1.7 222.98-1.7L222.98-1.7Q223.78-1.7 224.53-2 225.28-2.3 225.98-2.7L225.98-2.7Q226.68-2.25 226.73-1.2L226.73-1.2Q226.18-0.55 224.73 0.13 223.28 0.8 221.23 0.8ZM257.22-12.7L262.07-28.2 260.52-32.5 256.67-33.5Q256.52-34.45 256.92-35.25L256.92-35.25Q257.82-35.2 259.07-35.15 260.32-35.1 261.6-35.05 262.87-35 263.77-35L263.77-35Q265.22-35 267.22-35.1 269.22-35.2 270.62-35.25L270.62-35.25Q270.77-34.3 270.52-33.5L270.52-33.5Q269.52-33.3 268.5-33.18 267.47-33.05 266.47-32.5L266.47-32.5 272.67-13.1Q273.22-11.35 273.87-9.2 274.52-7.05 274.82-5.3L274.82-5.3 274.92-5.3Q275.27-7.2 275.77-9.2 276.27-11.2 276.77-13.1L276.77-13.1 281.87-32.5 277.52-33.5Q277.37-34.45 277.77-35.25L277.77-35.25Q279.12-35.2 280.57-35.1 282.02-35 283.42-35L283.42-35Q284.87-35 286.12-35.1 287.37-35.2 288.77-35.25L288.77-35.25Q288.92-34.3 288.67-33.5L288.67-33.5Q287.67-33.3 286.62-33.1 285.57-32.9 284.57-32.5L284.57-32.5 275.32 1Q274.97 1.2 274.1 1.35 273.22 1.5 272.77 1.5L272.77 1.5 263.47-24.35 255.32 1Q254.97 1.2 254.2 1.35 253.42 1.5 252.97 1.5L252.97 1.5 241.92-32.5 238.07-33.5Q237.92-34.45 238.32-35.25L238.32-35.25Q239.22-35.2 240.47-35.15 241.72-35.1 243-35.05 244.27-35 245.17-35L245.17-35Q246.62-35 248.62-35.1 250.62-35.2 252.02-35.25L252.02-35.25Q252.17-34.3 251.92-33.5L251.92-33.5Q250.82-33.4 249.77-33.15 248.72-32.9 247.72-32.5L247.72-32.5 252.97-12.85Q253.52-10.9 254.07-8.78 254.62-6.65 254.97-4.75L254.97-4.75 255.07-4.75Q255.37-6.65 255.95-8.65 256.52-10.65 257.22-12.7L257.22-12.7ZM297.87-37.25L297.87-22.25 298.12-22.25Q300.37-24.3 302.5-25.15 304.62-26 306.32-26L306.32-26Q310.42-26 312.3-23.85 314.17-21.7 314.17-18.2L314.17-18.2 314.17-2.5 317.77-1.5Q317.92-0.55 317.52 0.25L317.52 0.25Q316.17 0.15 314.62 0.08 313.07 0 311.67 0L311.67 0Q310.27 0 308.62 0.08 306.97 0.15 305.57 0.25L305.57 0.25Q305.42-0.7 305.67-1.5L305.67-1.5Q306.57-1.7 307.47-1.93 308.37-2.15 309.17-2.5L309.17-2.5 309.17-17.45Q309.17-19.55 308.52-20.65 307.87-21.75 306.77-22.13 305.67-22.5 304.32-22.5L304.32-22.5Q302.72-22.5 301-21.7 299.27-20.9 298.12-19.6L298.12-19.6 298.12-2.5 301.47-1.5Q301.62-0.55 301.22 0.25L301.22 0.25Q299.87 0.15 298.45 0.08 297.02 0 295.62 0L295.62 0Q294.22 0 292.57 0.08 290.92 0.15 289.52 0.25L289.52 0.25Q289.37-0.7 289.62-1.5L289.62-1.5Q290.57-1.75 291.5-1.95 292.42-2.15 293.12-2.5L293.12-2.5 293.12-34.3 288.97-34.7Q288.82-35.7 289.22-36.45L289.22-36.45Q292.82-37 295.97-37.8L295.97-37.8Q296.47-37.75 296.92-37.63 297.37-37.5 297.87-37.25L297.87-37.25ZM328.77-24.95L328.77-2.5 332.12-1.5Q332.27-0.55 331.87 0.25L331.87 0.25Q330.52 0.15 329.09 0.08 327.67 0 326.27 0L326.27 0Q324.87 0 323.22 0.08 321.57 0.15 320.17 0.25L320.17 0.25Q320.02-0.7 320.27-1.5L320.27-1.5Q321.22-1.75 322.14-1.95 323.07-2.15 323.77-2.5L323.77-2.5 323.77-22 319.62-22.4Q319.47-23.4 319.87-24.15L319.87-24.15Q321.67-24.4 323.49-24.75 325.32-25.1 326.87-25.5L326.87-25.5Q327.37-25.45 327.82-25.33 328.27-25.2 328.77-24.95L328.77-24.95ZM325.42-30.05L325.42-30.05Q324.57-30.05 323.87-30.6 323.17-31.15 322.77-31.95 322.37-32.75 322.37-33.45L322.37-33.45Q322.37-34.1 322.92-34.77 323.47-35.45 324.29-35.93 325.12-36.4 325.92-36.4L325.92-36.4Q326.82-36.4 327.52-35.83 328.22-35.25 328.59-34.48 328.97-33.7 328.97-33L328.97-33Q328.97-32.35 328.44-31.65 327.92-30.95 327.09-30.5 326.27-30.05 325.42-30.05ZM338.02-7.5L338.52-2.2Q339.57-1.7 340.64-1.5 341.72-1.3 343.07-1.3L343.07-1.3Q345.12-1.3 346.72-2.2 348.32-3.1 348.32-5.1L348.32-5.1Q348.32-6.15 347.74-7.05 347.17-7.95 345.74-8.9 344.32-9.85 341.67-11.05L341.67-11.05Q338.77-12.4 337.17-14.18 335.57-15.95 335.57-19.1L335.57-19.1Q335.57-21.65 336.84-23.13 338.12-24.6 340.14-25.25 342.17-25.9 344.42-25.9L344.42-25.9Q346.37-25.9 348.29-25.53 350.22-25.15 351.72-24.5L351.72-24.5Q351.72-24.25 351.74-23.95 351.77-23.65 351.77-23.4L351.77-23.4Q351.77-20.35 350.82-17.65L350.82-17.65Q350.62-17.6 350.44-17.57 350.27-17.55 350.07-17.55L350.07-17.55Q349.32-17.55 348.57-17.85L348.57-17.85 347.77-23.25Q347.12-23.45 346.27-23.58 345.42-23.7 344.57-23.7L344.57-23.7Q343.42-23.7 342.29-23.38 341.17-23.05 340.44-22.28 339.72-21.5 339.72-20.1L339.72-20.1Q339.72-19.15 340.14-18.3 340.57-17.45 341.84-16.53 343.12-15.6 345.67-14.35L345.67-14.35Q349.67-12.45 351.29-10.68 352.92-8.9 352.92-6.25L352.92-6.25Q352.92-3.7 351.57-2.1 350.22-0.5 348.04 0.25 345.87 1 343.42 1L343.42 1Q341.07 1 339.04 0.63 337.02 0.25 334.97-1L334.97-1 334.97-1.85Q334.97-3.2 335.14-4.63 335.32-6.05 335.87-7.7L335.87-7.7Q336.17-7.75 336.37-7.75L336.37-7.75Q337.27-7.75 338.02-7.5L338.02-7.5ZM363.91-25.1L363.86-23.1 364.11-22.85Q366.11-24.6 368.01-25.3 369.91-26 371.61-26L371.61-26Q375.01-26 377.31-24.18 379.61-22.35 380.81-19.4 382.01-16.45 382.01-13.15L382.01-13.15Q382.01-6.2 378.59-2.63 375.16 0.95 369.21 0.95L369.21 0.95Q368.26 0.95 366.79 0.65 365.31 0.35 364.11-0.15L364.11-0.15 364.11 10 368.46 11Q368.61 11.95 368.21 12.75L368.21 12.75Q366.86 12.65 364.94 12.58 363.01 12.5 361.61 12.5L361.61 12.5Q360.21 12.5 358.56 12.58 356.91 12.65 355.51 12.75L355.51 12.75Q355.36 11.8 355.61 11L355.61 11Q356.46 10.8 357.36 10.58 358.26 10.35 359.11 10L359.11 10 359.11-22 355.01-22.4Q354.86-23.4 355.26-24.15L355.26-24.15Q355.66-24.2 357.51-24.53 359.36-24.85 362.16-25.5L362.16-25.5Q362.71-25.45 363.11-25.35 363.51-25.25 363.91-25.1L363.91-25.1ZM364.11-20.2L364.11-2.95Q365.06-2.3 366.24-1.83 367.41-1.35 369.11-1.35L369.11-1.35Q372.86-1.35 374.79-4.38 376.71-7.4 376.71-12.85L376.71-12.85Q376.71-18 374.94-20.5 373.16-23 370.11-23L370.11-23Q368.26-23 366.54-22.08 364.81-21.15 364.11-20.2L364.11-20.2ZM391.16-13.5L391.16-12.5Q391.16-7.45 393.19-4.67 395.21-1.9 398.71-1.9L398.71-1.9Q400.26-1.9 401.31-2.08 402.36-2.25 403.39-2.75 404.41-3.25 405.71-4.15L405.71-4.15Q406.51-3.8 406.61-2.95L406.61-2.95Q405.06-1.15 402.91-0.15 400.76 0.85 398.56 0.85L398.56 0.85Q394.76 0.85 391.91-0.75 389.06-2.35 387.46-5.35 385.86-8.35 385.86-12.5L385.86-12.5Q385.86-16.75 387.54-19.73 389.21-22.7 392.04-24.28 394.86-25.85 398.31-25.85L398.31-25.85Q402.76-25.85 404.89-22.88 407.01-19.9 407.01-15.2L407.01-15.2Q407.01-14.85 407.01-14.55 407.01-14.25 406.96-13.9L406.96-13.9 406.26-13.35 391.16-13.5ZM398.26-23.7L398.26-23.7Q396.81-23.7 395.39-22.8 393.96-21.9 392.86-20.1 391.76-18.3 391.36-15.55L391.36-15.55 402.26-16.15Q402.26-20 401.44-21.85 400.61-23.7 398.26-23.7ZM418.76-16.85L418.76-2.5 423.61-1.5Q423.76-0.55 423.36 0.25L423.36 0.25Q422.46 0.2 421.13 0.15 419.81 0.1 418.51 0.05 417.21 0 416.26 0L416.26 0Q414.86 0 413.21 0.08 411.56 0.15 410.16 0.25L410.16 0.25Q410.01-0.7 410.26-1.5L410.26-1.5Q411.21-1.75 412.13-1.95 413.06-2.15 413.76-2.5L413.76-2.5 413.76-22 409.61-22.4Q409.46-23.4 409.86-24.15L409.86-24.15Q411.66-24.4 413.48-24.75 415.31-25.1 416.86-25.5L416.86-25.5Q417.36-25.45 417.68-25.33 418.01-25.2 418.51-24.95L418.51-24.95 418.51-20.4 418.56-20.35Q420.11-22.65 422.03-24.25 423.96-25.85 426.16-25.85L426.16-25.85Q427.01-25.85 427.83-25.73 428.66-25.6 429.46-25.1L429.46-25.1Q429.56-23.05 429.28-21.2 429.01-19.35 428.46-17.6L428.46-17.6Q428.11-17.55 427.36-17.57 426.61-17.6 426.21-17.8L426.21-17.8 425.51-22.8Q423.76-22.8 421.98-21.53 420.21-20.25 418.76-16.85L418.76-16.85ZM437.46-13.5L437.46-12.5Q437.46-7.45 439.48-4.67 441.51-1.9 445.01-1.9L445.01-1.9Q446.56-1.9 447.61-2.08 448.66-2.25 449.68-2.75 450.71-3.25 452.01-4.15L452.01-4.15Q452.81-3.8 452.91-2.95L452.91-2.95Q451.36-1.15 449.21-0.15 447.06 0.85 444.86 0.85L444.86 0.85Q441.06 0.85 438.21-0.75 435.36-2.35 433.76-5.35 432.16-8.35 432.16-12.5L432.16-12.5Q432.16-16.75 433.83-19.73 435.51-22.7 438.33-24.28 441.16-25.85 444.61-25.85L444.61-25.85Q449.06-25.85 451.18-22.88 453.31-19.9 453.31-15.2L453.31-15.2Q453.31-14.85 453.31-14.55 453.31-14.25 453.26-13.9L453.26-13.9 452.56-13.35 437.46-13.5ZM444.56-23.7L444.56-23.7Q443.11-23.7 441.68-22.8 440.26-21.9 439.16-20.1 438.06-18.3 437.66-15.55L437.66-15.55 448.56-16.15Q448.56-20 447.73-21.85 446.91-23.7 444.56-23.7ZM465.05-16.85L465.05-2.5 469.9-1.5Q470.05-0.55 469.65 0.25L469.65 0.25Q468.75 0.2 467.43 0.15 466.1 0.1 464.8 0.05 463.5 0 462.55 0L462.55 0Q461.15 0 459.5 0.08 457.85 0.15 456.45 0.25L456.45 0.25Q456.3-0.7 456.55-1.5L456.55-1.5Q457.5-1.75 458.43-1.95 459.35-2.15 460.05-2.5L460.05-2.5 460.05-22 455.9-22.4Q455.75-23.4 456.15-24.15L456.15-24.15Q457.95-24.4 459.78-24.75 461.6-25.1 463.15-25.5L463.15-25.5Q463.65-25.45 463.98-25.33 464.3-25.2 464.8-24.95L464.8-24.95 464.8-20.4 464.85-20.35Q466.4-22.65 468.33-24.25 470.25-25.85 472.45-25.85L472.45-25.85Q473.3-25.85 474.13-25.73 474.95-25.6 475.75-25.1L475.75-25.1Q475.85-23.05 475.58-21.2 475.3-19.35 474.75-17.6L474.75-17.6Q474.4-17.55 473.65-17.57 472.9-17.6 472.5-17.8L472.5-17.8 471.8-22.8Q470.05-22.8 468.28-21.53 466.5-20.25 465.05-16.85L465.05-16.85Z" opacity="1" transform="matrix(1,0,0,1,0,0)" fill="#8789fe" class="wordmark-text-0" data-fill-palette-color="primary" id="text-0"></path></svg></g></svg></g></svg></g></svg></g><g transform="matrix(1,0,0,1,159.70798709774735,0)"><svg viewBox="0 0 78.08162580450524 57.94285075087156" height="57.94285075087156" width="78.08162580450524"><g><svg xmlns="http://www.w3.org/2000/svg" xmlns:xlink="http://www.w3.org/1999/xlink" version="1.1" x="8" y="0" viewBox="5.5 7.5 90 84" enable-background="new 0 0 100 100" xml:space="preserve" height="57.94285075087156" width="62.08162580450524" class="icon-icon-0" data-fill-palette-color="accent" id="icon-0"><g fill="#8789fe" data-fill-palette-color="accent"><polygon points="43.5,29.609 43.39,29.5 41.976,29.5 43.5,31.031  " fill="#8789fe" data-fill-palette-color="accent"></polygon><polygon points="43.5,38.145 34.906,29.5 33.491,29.5 43.5,39.566  " fill="#8789fe" data-fill-palette-color="accent"></polygon><polygon points="36.76,65.5 5.5,34.063 5.5,35.484 35.346,65.5  " fill="#8789fe" data-fill-palette-color="accent"></polygon><polygon points="33.932,65.5 5.5,36.906 5.5,38.328 32.518,65.5  " fill="#8789fe" data-fill-palette-color="accent"></polygon><polygon points="43.5,55.213 17.935,29.5 16.521,29.5 43.5,56.635  " fill="#8789fe" data-fill-palette-color="accent"></polygon><polygon points="43.5,35.299 37.734,29.5 36.32,29.5 43.5,36.721  " fill="#8789fe" data-fill-palette-color="accent"></polygon><polygon points="42.417,65.5 6.621,29.5 5.5,29.5 5.5,29.795 41.002,65.5  " fill="#8789fe" data-fill-palette-color="accent"></polygon><polygon points="43.5,40.988 32.077,29.5 30.663,29.5 43.5,42.41  " fill="#8789fe" data-fill-palette-color="accent"></polygon><polygon points="43.5,32.455 40.562,29.5 39.148,29.5 43.5,33.877  " fill="#8789fe" data-fill-palette-color="accent"></polygon><polygon points="14.134,65.5 5.5,56.799 5.5,58.221 12.721,65.5  " fill="#8789fe" data-fill-palette-color="accent"></polygon><polygon points="43.5,58.057 15.106,29.5 13.692,29.5 43.5,59.479  " fill="#8789fe" data-fill-palette-color="accent"></polygon><polygon points="8.035,29.5 43.5,65.168 43.5,63.744 9.449,29.5  " fill="#8789fe" data-fill-palette-color="accent"></polygon><polygon points="43.5,60.9 12.278,29.5 10.863,29.5 43.5,62.322  " fill="#8789fe" data-fill-palette-color="accent"></polygon><polygon points="39.588,65.5 5.5,31.219 5.5,32.641 38.174,65.5  " fill="#8789fe" data-fill-palette-color="accent"></polygon><polygon points="22.616,65.5 5.5,48.281 5.5,49.699 21.202,65.5  " fill="#8789fe" data-fill-palette-color="accent"></polygon><polygon points="25.445,65.5 5.5,45.439 5.5,46.861 24.031,65.5  " fill="#8789fe" data-fill-palette-color="accent"></polygon><polygon points="43.5,43.834 29.248,29.5 27.834,29.5 43.5,45.256  " fill="#8789fe" data-fill-palette-color="accent"></polygon><polygon points="43.5,49.523 23.591,29.5 22.177,29.5 43.5,50.945  " fill="#8789fe" data-fill-palette-color="accent"></polygon><polygon points="16.961,65.5 5.5,53.957 5.5,55.377 15.548,65.5  " fill="#8789fe" data-fill-palette-color="accent"></polygon><polygon points="19.789,65.5 5.5,51.119 5.5,52.537 18.375,65.5  " fill="#8789fe" data-fill-palette-color="accent"></polygon><polygon points="43.5,52.367 20.763,29.5 19.349,29.5 43.5,53.789  " fill="#8789fe" data-fill-palette-color="accent"></polygon><polygon points="11.307,65.5 5.5,59.643 5.5,61.066 9.893,65.5  " fill="#8789fe" data-fill-palette-color="accent"></polygon><polygon points="8.479,65.5 5.5,62.492 5.5,63.918 7.065,65.5  " fill="#8789fe" data-fill-palette-color="accent"></polygon><polygon points="31.104,65.5 5.5,39.75 5.5,41.174 29.689,65.5  " fill="#8789fe" data-fill-palette-color="accent"></polygon><polygon points="28.273,65.5 5.5,42.596 5.5,44.018 26.859,65.5  " fill="#8789fe" data-fill-palette-color="accent"></polygon><polygon points="43.5,46.678 26.42,29.5 25.006,29.5 43.5,48.1  " fill="#8789fe" data-fill-palette-color="accent"></polygon><rect x="5.5" y="17.5" width="67" height="6" fill="#8789fe" data-fill-palette-color="accent"></rect><rect x="49.5" y="29.5" width="46" height="4" fill="#8789fe" data-fill-palette-color="accent"></rect><rect x="5.5" y="87.5" width="45" height="4" fill="#8789fe" data-fill-palette-color="accent"></rect><rect x="5.5" y="71.5" width="83" height="4" fill="#8789fe" data-fill-palette-color="accent"></rect><rect x="5.5" y="79.5" width="90" height="4" fill="#8789fe" data-fill-palette-color="accent"></rect><rect x="49.5" y="53.5" width="46" height="4" fill="#8789fe" data-fill-palette-color="accent"></rect><rect x="49.5" y="37.5" width="29" height="4" fill="#8789fe" data-fill-palette-color="accent"></rect><rect x="49.5" y="61.5" width="29" height="4" fill="#8789fe" data-fill-palette-color="accent"></rect><rect x="49.5" y="45.5" width="39" height="4" fill="#8789fe" data-fill-palette-color="accent"></rect><rect x="5.5" y="7.5" width="90" height="6" fill="#8789fe" data-fill-palette-color="accent"></rect></g></svg></g></svg></g><g><rect width="83.17486709774738" height="3.78100295060461" y="53.16184780026695" x="237.7896129022526" fill="#8789fe" data-fill-palette-color="secondary"></rect><rect width="83.17486709774738" height="3.78100295060461" y="53.16184780026695" x="76.53311999999997" fill="#8789fe" data-fill-palette-color="secondary"></rect></g></svg></g><defs></defs></svg><rect width="395.52" height="122.83232854111291" fill="none" stroke="none" visibility="hidden"></rect></g></svg></g></svg>